<?xml version="1.0" encoding="UTF-8" standalone="no"?>
<!DOCTYPE svg PUBLIC "-//W3C//DTD SVG 1.1//EN" "http://www.w3.org/Graphics/SVG/1.1/DTD/svg11.dtd">
<svg version="1.1" xmlns="http://www.w3.org/2000/svg" xmlns:xlink="http://www.w3.org/1999/xlink" preserveAspectRatio="xMidYMid meet" viewBox="0 0 240 40" width="240" height="40"><defs><path d="M4.04 4.63C3 4.84 2 5.52 1.46 6.35C0.97 7.14 0.8 7.93 0.64 8.76C-0.15 13.19 -0.05 17.54 0.11 22.35C0.15 23.46 0.31 24.76 0.83 25.56C1.37 26.36 2.29 26.87 3.39 27.04C4.8 27.25 6.21 27.42 7.62 27.56C7.59 28.43 7.34 35.39 7.31 36.26C7.26 36.95 7.6 37.53 8.02 37.86C8.39 38.15 8.81 38.27 9.24 38.31C10.1 38.37 11.11 38 11.61 37.05C13.81 32.82 15.19 30.96 17.93 28.15C25.09 28.33 31.34 27.93 38.41 27.41C40.91 27.34 42.63 25.3 43.08 23.67C44.44 19.43 44.65 14.21 44.8 8.93C44.86 6.84 44.13 4.78 42.85 3.69C41.62 2.7 40.14 2.34 38.79 1.98C35.02 1.12 31.25 0.67 27.96 0.64C20.23 0.64 12.17 2.38 4.04 4.63ZM41.56 5.29C42.82 6.63 42.78 7.52 42.76 8.96C42.62 14.08 42.37 19.05 41.21 22.82C40.72 24.23 39.85 25.23 38.21 25.38C31 25.91 24.75 26.32 17.5 26.12C17.22 26.11 16.94 26.22 16.74 26.42C13.69 29.49 12.14 31.63 9.82 36.1C9.76 36.2 9.65 36.26 9.5 36.27C9.4 36.26 9.37 36.19 9.36 36.12C9.39 35.18 9.64 27.63 9.67 26.69C9.69 26.18 9.27 25.69 8.77 25.64C7.07 25.48 5.39 25.27 3.71 25.02C2.98 24.91 2.71 24.71 2.51 24.41C2.17 23.59 2.18 23.08 2.15 22.29C1.99 17.51 1.91 13.34 2.64 9.19C2.71 8.57 2.94 7.94 3.18 7.42C3.59 6.79 4.2 6.69 4.83 6.52C12.78 4.32 20.57 2.68 27.89 2.68C31.49 2.81 35.26 3.17 38.25 3.95C39.61 4.32 40.8 4.67 41.56 5.29ZM10.63 16.33C11.07 16.95 11.76 17.46 12.6 17.57C13.69 17.66 14.38 17.22 15.13 16.71C16.48 15.54 16.62 13.48 15.59 12C15.07 11.25 14.23 10.79 13.37 10.76C12.2 10.77 11.41 11.3 10.77 12.04C9.67 13.35 9.78 15.14 10.63 16.33ZM20.11 12.57C19.49 13.51 19.13 14.68 19.63 15.82C20.59 18.02 23.91 18 25.23 15.76C25.84 14.73 25.69 13.55 25.23 12.7C24.78 11.85 24.1 11.16 23.1 11C22.94 10.97 22.78 10.96 22.62 10.97C21.53 11 20.65 11.76 20.11 12.57ZM31.23 11.29C29.92 11.64 28.8 12.99 28.97 14.72C29.06 15.59 29.46 16.44 30.18 17.03C30.9 17.62 31.95 17.88 33.06 17.65C34.33 17.39 35.12 16.37 35.38 15.38C35.65 14.39 35.58 13.38 34.97 12.56C34.33 11.7 33.32 11.19 32.25 11.18C31.91 11.17 31.56 11.2 31.23 11.29ZM13.92 13.16C14.37 13.81 14.24 14.78 13.79 15.17C13.35 15.56 13.07 15.59 12.87 15.57C12.68 15.54 12.48 15.4 12.3 15.15C11.96 14.67 11.86 13.9 12.31 13.34C12.54 13.03 12.98 12.83 13.29 12.8C13.53 12.8 13.72 12.88 13.92 13.16ZM23.44 13.66C23.64 14.04 23.68 14.4 23.48 14.72C22.91 15.7 21.68 15.43 21.49 15.01C21.42 14.85 21.48 14.2 21.81 13.69C22.15 13.18 22.57 12.99 22.77 13.02C22.81 13.03 23.23 13.27 23.44 13.66ZM33.43 14.85C33.31 15.29 33.12 15.57 32.65 15.66C32.05 15.79 31.71 15.66 31.45 15.45C31.2 15.25 31.03 14.9 30.99 14.53C30.9 13.61 31.23 13.4 31.76 13.26C32.37 13.11 33.06 13.37 33.33 13.77C33.39 13.85 33.54 14.41 33.43 14.85Z" id="b3u16dujTj"></path><path d="M57.89 4.06C58.06 3.85 58.32 3.74 58.59 3.75C59.27 3.75 64.73 3.75 65.41 3.75C65.64 3.75 65.88 3.84 66.13 4.03C66.36 4.2 66.5 4.47 66.49 4.76C66.49 5.48 66.49 9.11 66.49 15.65L77.92 15.65C77.92 9.11 77.92 5.48 77.92 4.76C77.92 4.48 78.01 4.24 78.2 4.04C78.39 3.84 78.64 3.74 78.95 3.74C79.62 3.74 85.01 3.74 85.68 3.74C85.99 3.74 86.26 3.82 86.49 3.97C86.72 4.13 86.83 4.37 86.83 4.71C86.83 7.93 86.83 33.65 86.83 36.86C86.83 37.2 86.73 37.45 86.53 37.62C86.33 37.79 86.07 37.87 85.75 37.87C85.07 37.87 79.63 37.87 78.95 37.87C78.64 37.87 78.39 37.79 78.2 37.62C78.01 37.45 77.92 37.2 77.92 36.86C77.92 35.99 77.92 31.64 77.92 23.81L66.49 23.81C66.49 31.64 66.49 35.99 66.49 36.86C66.49 37.18 66.39 37.43 66.18 37.61C65.98 37.78 65.7 37.87 65.34 37.87C64.67 37.87 59.26 37.87 58.59 37.87C57.95 37.87 57.62 37.57 57.6 36.98C57.6 34.83 57.6 24.09 57.6 4.76C57.67 4.43 57.77 4.19 57.89 4.06ZM119.84 37.8C119.64 37.85 119.42 37.87 119.21 37.87C118.87 37.87 116.09 37.87 115.74 37.87C115.47 37.87 115.23 37.82 115.03 37.72C114.83 37.62 114.66 37.49 114.52 37.32C114.38 37.15 114.27 36.95 114.18 36.75C114.09 36.53 114.01 36.31 113.95 36.08C113.88 35.79 113.31 33.43 113.24 33.14C113.01 33.61 112.67 34.15 112.24 34.76C111.76 35.4 111.2 35.97 110.57 36.46C109.9 36.99 109.09 37.43 108.16 37.79C107.22 38.15 106.15 38.33 104.94 38.33C103.19 38.33 101.61 37.99 100.18 37.32C98.79 36.67 97.55 35.73 96.54 34.56C95.54 33.4 94.76 32.04 94.21 30.48C93.66 28.93 93.38 27.27 93.38 25.51C93.38 24 93.38 11.96 93.38 10.46C93.38 9.87 93.51 9.43 93.76 9.13C94.01 8.84 94.42 8.69 94.97 8.69C95.5 8.69 99.74 8.69 100.28 8.69C100.94 8.69 101.39 8.8 101.63 9.02C101.88 9.24 102 9.67 102 10.32C102 11.81 102 23.78 102 25.28C102 25.94 102.15 26.56 102.45 27.15C102.75 27.74 103.14 28.26 103.63 28.71C104.12 29.17 104.68 29.52 105.3 29.78C105.92 30.04 106.55 30.17 107.19 30.17C107.74 30.17 108.32 30.04 108.91 29.78C109.5 29.52 110.05 29.17 110.54 28.74C111.03 28.3 111.44 27.79 111.77 27.2C112.09 26.61 112.25 25.98 112.25 25.33C112.25 23.83 112.25 11.88 112.25 10.39C112.25 10.13 112.3 9.87 112.4 9.61C112.5 9.35 112.65 9.15 112.85 9.01C113.05 8.89 113.23 8.8 113.41 8.76C113.59 8.71 113.79 8.69 114.02 8.69C114.54 8.69 118.69 8.69 119.21 8.69C119.87 8.69 120.35 8.85 120.64 9.17C120.93 9.49 121.07 9.92 121.07 10.46C121.07 13.03 121.07 33.6 121.07 36.17C121.07 36.46 121.01 36.73 120.88 36.98C120.75 37.22 120.57 37.41 120.34 37.55C120.35 37.55 120.39 37.52 120.48 37.48C120.2 37.67 119.99 37.77 119.84 37.8ZM145.79 35.64C145.29 36.12 144.74 36.56 144.15 36.98C143.55 37.39 142.9 37.73 142.22 38C141.51 38.27 140.75 38.41 139.99 38.4C137.9 38.4 135.98 38.01 134.23 37.23C132.52 36.48 130.98 35.39 129.7 34.02C128.44 32.67 127.45 31.07 126.74 29.23C126.03 27.39 125.67 25.42 125.67 23.3C125.67 21.17 126.03 19.19 126.74 17.36C127.45 15.53 128.44 13.94 129.7 12.58C130.98 11.22 132.52 10.13 134.23 9.39C135.98 8.61 137.9 8.23 139.99 8.23C140.83 8.23 141.6 8.35 142.3 8.59C142.97 8.83 143.61 9.14 144.2 9.54C144.78 9.92 145.31 10.35 145.79 10.84C146.27 11.32 146.73 11.79 147.16 12.25C147.16 11.2 147.16 2.8 147.16 1.75C147.16 1.26 147.31 0.84 147.6 0.51C147.9 0.17 148.35 0 148.95 0C149.47 0 153.6 0 154.12 0C154.32 0 154.53 0.04 154.75 0.13C154.97 0.21 155.18 0.33 155.36 0.48C155.54 0.64 155.69 0.82 155.81 1.03C155.92 1.25 155.98 1.49 155.98 1.75C155.98 5.18 155.98 32.67 155.98 36.1C155.98 37.28 155.36 37.87 154.12 37.87C153.67 37.87 150.07 37.87 149.62 37.87C149.31 37.87 149.07 37.83 148.9 37.76C148.74 37.68 148.59 37.57 148.48 37.42C148.35 37.26 148.25 37.07 148.17 36.87C148.06 36.61 147.94 36.36 147.82 36.1C147.78 35.98 147.56 35.39 147.16 34.31C146.58 34.88 146.12 35.33 145.79 35.64ZM134.41 26.14C134.73 27.02 135.18 27.78 135.76 28.43C136.35 29.08 137.06 29.6 137.86 29.96C138.68 30.33 139.59 30.52 140.58 30.52C141.56 30.52 142.49 30.34 143.35 29.99C144.19 29.65 144.96 29.16 145.62 28.53C146.27 27.9 146.79 27.16 147.17 26.34C147.56 25.49 147.78 24.59 147.82 23.62C147.82 23.59 147.82 23.33 147.82 23.3C147.83 22.34 147.64 21.39 147.27 20.5C146.92 19.63 146.4 18.83 145.74 18.16C145.09 17.48 144.31 16.94 143.45 16.56C142.54 16.16 141.57 15.96 140.58 15.97C139.59 15.97 138.68 16.17 137.86 16.56C137.04 16.95 136.34 17.48 135.76 18.16C135.17 18.84 134.71 19.64 134.41 20.5C134.1 21.4 133.94 22.35 133.94 23.3C133.94 24.27 134.09 25.23 134.41 26.14ZM181.29 35.64C180.8 36.12 180.25 36.56 179.65 36.98C179.05 37.39 178.4 37.73 177.72 38C177.01 38.27 176.25 38.41 175.49 38.4C173.41 38.4 171.49 38.01 169.74 37.23C168.02 36.48 166.48 35.39 165.21 34.02C163.94 32.67 162.96 31.07 162.24 29.23C161.53 27.39 161.17 25.42 161.17 23.3C161.17 21.17 161.53 19.19 162.24 17.36C162.96 15.53 163.94 13.94 165.21 12.58C166.48 11.22 168.02 10.13 169.74 9.39C171.49 8.61 173.41 8.23 175.49 8.23C176.33 8.23 177.1 8.35 177.8 8.59C178.47 8.83 179.11 9.14 179.71 9.54C180.28 9.92 180.81 10.35 181.29 10.84C181.78 11.32 182.23 11.79 182.66 12.25C182.66 11.2 182.66 2.8 182.66 1.75C182.66 1.26 182.81 0.84 183.11 0.51C183.41 0.17 183.86 0 184.45 0C184.97 0 189.11 0 189.62 0C189.82 0 190.03 0.04 190.26 0.13C190.48 0.21 190.68 0.33 190.87 0.48C191.05 0.64 191.2 0.82 191.31 1.03C191.43 1.25 191.49 1.49 191.49 1.75C191.49 5.18 191.49 32.67 191.49 36.1C191.49 37.28 190.87 37.87 189.62 37.87C189.17 37.87 185.57 37.87 185.12 37.87C184.81 37.87 184.58 37.83 184.41 37.76C184.24 37.68 184.1 37.57 183.98 37.42C183.86 37.26 183.75 37.07 183.67 36.87C183.57 36.61 183.45 36.36 183.33 36.1C183.28 35.98 183.06 35.39 182.66 34.31C182.08 34.88 181.63 35.33 181.29 35.64ZM169.92 26.14C170.23 27.02 170.68 27.78 171.26 28.43C171.85 29.08 172.57 29.6 173.37 29.96C174.19 30.33 175.09 30.52 176.09 30.52C177.07 30.52 177.99 30.34 178.86 29.99C179.7 29.65 180.47 29.16 181.12 28.53C181.77 27.9 182.3 27.16 182.67 26.34C183.06 25.49 183.28 24.59 183.33 23.62C183.33 23.59 183.33 23.33 183.33 23.3C183.33 22.34 183.14 21.39 182.78 20.5C182.42 19.63 181.9 18.83 181.25 18.16C180.59 17.48 179.81 16.94 178.95 16.56C178.05 16.16 177.07 15.96 176.09 15.97C175.09 15.97 174.19 16.17 173.37 16.56C172.55 16.95 171.85 17.48 171.26 18.16C170.67 18.84 170.22 19.64 169.92 20.5C169.6 21.4 169.44 22.35 169.45 23.3C169.44 24.27 169.6 25.23 169.92 26.14ZM197.97 0.53C198.21 0.19 198.63 0.02 199.23 0.02C199.79 0.02 204.3 0.02 204.86 0.02C205.02 0.02 205.18 0.06 205.34 0.15C205.52 0.24 205.68 0.36 205.82 0.51C205.96 0.66 206.08 0.84 206.18 1.06C206.28 1.27 206.33 1.51 206.33 1.77C206.33 5.2 206.33 32.67 206.33 36.1C206.33 36.69 206.17 37.13 205.84 37.42C205.51 37.72 205.08 37.87 204.56 37.87C204.03 37.87 199.76 37.87 199.23 37.87C198.63 37.87 198.21 37.72 197.97 37.42C197.72 37.13 197.6 36.68 197.6 36.1C197.6 33.81 197.6 22.37 197.6 1.77C197.68 1.17 197.8 0.75 197.97 0.53ZM231.75 37.29C230.05 37.99 228.23 38.34 226.4 38.33C224.3 38.33 222.31 37.95 220.44 37.18C218.62 36.44 216.95 35.36 215.53 34C214.11 32.63 212.97 31.01 212.17 29.21C211.34 27.37 210.93 25.37 210.93 23.21C210.93 21.86 211.09 20.56 211.42 19.29C211.74 18.06 212.21 16.86 212.83 15.74C213.43 14.64 214.17 13.62 215.03 12.7C215.89 11.78 216.87 10.98 217.94 10.32C219.03 9.65 220.2 9.13 221.43 8.78C222.72 8.41 224.06 8.22 225.41 8.23C226.68 8.23 227.91 8.4 229.11 8.73C230.3 9.07 231.42 9.54 232.47 10.16C233.52 10.77 234.48 11.51 235.36 12.36C236.22 13.21 236.98 14.15 237.61 15.18C238.24 16.2 238.73 17.29 239.07 18.44C239.41 19.6 239.59 20.79 239.59 22.01C239.59 22.81 239.57 23.46 239.55 23.97C239.53 24.47 239.41 24.88 239.2 25.17C238.98 25.48 238.63 25.68 238.13 25.8C237.63 25.91 236.9 25.97 235.93 25.97C234.28 25.97 221.04 25.97 219.39 25.97C219.54 26.95 219.85 27.77 220.32 28.43C220.75 29.05 221.3 29.59 221.94 30C222.55 30.39 223.2 30.67 223.89 30.84C224.53 31 225.18 31.09 225.84 31.09C226.4 31.09 226.96 31.03 227.54 30.92C228.12 30.81 228.68 30.65 229.23 30.46C229.75 30.28 230.25 30.06 230.73 29.79C231.18 29.54 231.54 29.28 231.82 29C232.06 28.8 232.27 28.65 232.45 28.55C232.63 28.45 232.81 28.4 233.01 28.4C233.21 28.4 233.42 28.47 233.62 28.61C233.88 28.79 234.11 28.99 234.32 29.21C234.57 29.48 236.52 31.69 236.76 31.97C236.93 32.17 237.04 32.35 237.08 32.51C237.13 32.67 237.15 32.83 237.15 33C237.15 33.31 237.07 33.57 236.9 33.79C236.73 34.02 236.53 34.21 236.3 34.38C234.97 35.61 233.43 36.59 231.75 37.29ZM223.51 15.59C222.94 15.83 222.41 16.16 221.94 16.55C221.45 16.94 221.01 17.4 220.62 17.9C220.24 18.38 219.92 18.9 219.66 19.44C220.84 19.44 230.23 19.44 231.4 19.44C231.1 18.87 230.75 18.31 230.36 17.79C229.99 17.29 229.56 16.84 229.07 16.45C228.58 16.06 228.02 15.76 227.42 15.56C226.8 15.34 226.07 15.24 225.25 15.24C224.65 15.24 224.07 15.35 223.51 15.59Z" id="c1wjVSvwCo"></path></defs><g><g><g><use xlink:href="#b3u16dujTj" opacity="1" fill="#fbf7f9" fill-opacity="1"></use><g><use xlink:href="#b3u16dujTj" opacity="1" fill-opacity="0" stroke="#000000" stroke-width="1" stroke-opacity="0"></use></g></g><g><use xlink:href="#c1wjVSvwCo" opacity="1" fill="#fbf7f9" fill-opacity="1"></use><g><use xlink:href="#c1wjVSvwCo" opacity="1" fill-opacity="0" stroke="#000000" stroke-width="1" stroke-opacity="0"></use></g></g></g></g></svg>